HIERARCHY
ROOT root
{
	OFFSET	0.000000	0.000000	0.000000
	CHANNELS 6 Xposition Yposition Zposition Zrotation Yrotation Xrotation
	JOINT lhipjoint
	{
		OFFSET	0.000000	0.000000	0.000000
		CHANNELS 3 Zrotation Yrotation Xrotation
		JOINT lfemur
		{
			OFFSET	1.379593	-1.787134	0.865822
			CHANNELS 3 Zrotation Yrotation Xrotation
			JOINT ltibia
			{
				OFFSET	2.546113	-6.995392	0.000000
				CHANNELS 3 Zrotation Yrotation Xrotation
				JOINT lfoot
				{
					OFFSET	2.599512	-7.142107	0.000000
					CHANNELS 3 Zrotation Yrotation Xrotation
					JOINT ltoes
					{
						OFFSET	0.184933	-0.508098	1.961198
						CHANNELS 3 Zrotation Yrotation Xrotation
						End Site
						{
							OFFSET	0.000000	-0.000000	1.020540
						}
					}
				}
			}
		}
	}
	JOINT rhipjoint
	{
		OFFSET	0.000000	0.000000	0.000000
		CHANNELS 3 Zrotation Yrotation Xrotation
		JOINT rfemur
		{
			OFFSET	-1.335635	-1.787131	0.865821
			CHANNELS 3 Zrotation Yrotation Xrotation
			JOINT rtibia
			{
				OFFSET	-2.527048	-6.943014	0.000000
				CHANNELS 3 Zrotation Yrotation Xrotation
				JOINT rfoot
				{
					OFFSET	-2.559643	-7.032567	0.000000
					CHANNELS 3 Zrotation Yrotation Xrotation
					JOINT rtoes
					{
						OFFSET	-0.258038	-0.708956	2.121088
						CHANNELS 3 Zrotation Yrotation Xrotation
						End Site
						{
							OFFSET	-0.000000	-0.000000	1.118210
						}
					}
				}
			}
		}
	}
	JOINT lowerback
	{
		OFFSET	0.000000	0.000000	0.000000
		CHANNELS 3 Zrotation Yrotation Xrotation
		JOINT upperback
		{
			OFFSET	-0.020306	2.242478	-0.189003
			CHANNELS 3 Zrotation Yrotation Xrotation
			JOINT thorax
			{
				OFFSET	0.083423	2.246891	-0.037991
				CHANNELS 3 Zrotation Yrotation Xrotation
				JOINT lowerneck
				{
					OFFSET	0.091180	2.261659	0.051401
					CHANNELS 3 Zrotation Yrotation Xrotation
					JOINT upperneck
					{
						OFFSET	-0.116074	1.558436	0.246284
						CHANNELS 3 Zrotation Yrotation Xrotation
						JOINT head
						{
							OFFSET	0.068770	1.601743	-0.170131
							CHANNELS 3 Zrotation Yrotation Xrotation
							End Site
							{
								OFFSET	0.033585	1.612660	-0.085426
							}
						}
					}
				}
				JOINT lclavicle
				{
					OFFSET	0.091180	2.261659	0.051401
					CHANNELS 3 Zrotation Yrotation Xrotation
					JOINT lhumerus
					{
						OFFSET	3.475374	0.558664	-0.723475
						CHANNELS 3 Zrotation Yrotation Xrotation
						JOINT lradius
						{
							OFFSET	5.381540	-0.000000	0.000000
							CHANNELS 3 Zrotation Yrotation Xrotation
							JOINT lwrist
							{
								OFFSET	3.333120	-0.000000	0.000000
								CHANNELS 3 Zrotation Yrotation Xrotation
								JOINT lhand
								{
									OFFSET	1.666560	-0.000000	0.000000
									CHANNELS 3 Zrotation Yrotation Xrotation
									JOINT lfingers
									{
										OFFSET	0.710789	-0.000000	0.000000
										CHANNELS 3 Zrotation Yrotation Xrotation
										End Site
										{
											OFFSET	0.573057	-0.000000	0.000000
										}
									}
								}
								JOINT lthumb
								{
									OFFSET	1.666560	-0.000000	0.000000
									CHANNELS 3 Zrotation Yrotation Xrotation
									End Site
									{
										OFFSET	0.581806	-0.000000	0.581806
									}
								}
							}
						}
					}
				}
				JOINT rclavicle
				{
					OFFSET	0.091180	2.261659	0.051401
					CHANNELS 3 Zrotation Yrotation Xrotation
					JOINT rhumerus
					{
						OFFSET	-3.278445	0.907392	-0.357082
						CHANNELS 3 Zrotation Yrotation Xrotation
						JOINT rradius
						{
							OFFSET	-5.169540	-0.000000	0.000000
							CHANNELS 3 Zrotation Yrotation Xrotation
							JOINT rwrist
							{
								OFFSET	-3.382870	-0.000000	0.000000
								CHANNELS 3 Zrotation Yrotation Xrotation
								JOINT rhand
								{
									OFFSET	-1.691440	-0.000000	0.000000
									CHANNELS 3 Zrotation Yrotation Xrotation
									JOINT rfingers
									{
										OFFSET	-0.817967	-0.000000	0.000000
										CHANNELS 3 Zrotation Yrotation Xrotation
										End Site
										{
											OFFSET	-0.659466	-0.000000	0.000000
										}
									}
								}
								JOINT rthumb
								{
									OFFSET	-1.691440	-0.000000	0.000000
									CHANNELS 3 Zrotation Yrotation Xrotation
									End Site
									{
										OFFSET	-0.669535	-0.000000	0.669535
									}
								}
							}
						}
					}
				}
			}
		}
	}
}
MOTION
Frames:	12
Frame Time:	0.008333
	9.246540	17.850700	15.885600	-174.259995	6.983511	-176.848999	0.000000	0.000000	0.000000	-11.713402	-7.779086	-26.413813	1.957425	8.776830	25.099680	-0.007547	1.644358	0.011475	0.031964	-1.154074	-3.172844	0.000000	0.000000	0.000000	26.016895	-2.569129	7.892998	-2.339826	-9.540681	27.501745	-0.093281	5.621758	-6.266805	-0.053100	1.487019	-4.089941	4.158750	3.543000	1.944260	1.766320	4.907050	-0.007327	-0.632031	2.465630	-0.904159	-10.300201	-2.019110	-18.981102	0.794474	-0.521137	23.209204	1.871040	-1.314750	10.676801	-10.300201	0.000000	0.000000	-89.037277	7.293610	16.478312	16.195498	-25.785013	-3.730600	0.000000	0.000000	9.155483	-1.870065	37.777718	-1.145853	-7.125019	0.000000	0.000000	-43.649708	62.279182	-20.361847	-10.300201	0.000000	0.000000	81.997864	6.493739	17.329121	-22.051805	33.035522	-6.614061	-0.000000	0.000002	-21.314796	-13.990373	22.736198	-5.500253	7.125019	0.000000	0.000000	9.363860	-6.879654	8.289063
	9.229840	17.856300	15.728300	-175.119995	7.001720	-177.003998	0.000000	0.000000	0.000000	-12.972112	-7.459080	-26.051750	2.012306	8.891665	25.457018	-0.006001	1.616555	0.317289	0.078323	-1.805299	-4.967881	0.000000	0.000000	0.000000	24.850576	-2.342099	6.510557	-2.874638	-10.489297	30.576206	-0.034378	5.271725	-4.695450	-0.031790	1.150919	-3.164155	3.202320	3.605040	1.692140	1.516880	4.931719	0.043087	-0.340809	2.475880	-0.767336	-10.277500	-1.973980	-18.747202	0.675511	-0.490747	23.333597	1.828220	-1.329320	10.676601	-10.277500	0.000000	0.000000	-88.954575	7.185487	16.482901	16.055799	-25.596251	-3.670038	0.000000	0.000003	9.198196	-1.826445	37.673100	-1.116481	-7.125019	0.000000	0.000000	-43.473789	62.213982	-20.195896	-10.277500	0.000000	0.000000	82.149567	6.602823	17.315519	-22.317944	33.334484	-6.759736	0.000000	-0.000002	-22.086796	-14.128002	22.884966	-5.590454	7.125019	0.000000	0.000000	9.284781	-6.713214	8.247479
	9.216050	17.898500	15.573700	-175.723007	6.872291	-177.117004	0.000000	0.000000	0.000000	-13.688213	-7.670539	-25.664736	2.098390	9.068082	26.008522	-0.004433	1.221946	-0.112906	0.000464	0.138921	0.381678	0.000000	0.000000	0.000000	23.925127	-2.365830	4.968866	-3.446609	-11.385140	33.590061	0.013148	4.669909	-2.774827	-0.008152	0.582952	-1.601911	2.545940	3.526820	1.592840	1.353120	4.795240	0.168804	-0.131828	2.407741	-0.625758	-10.486200	-1.920250	-19.079098	0.733251	-0.319910	23.506002	1.907890	-1.271400	10.795300	-10.486200	-0.000000	-0.000000	-88.996994	6.818268	16.014030	15.930940	-25.426912	-3.616261	0.000000	0.000000	9.576365	-2.251427	37.648491	-1.375653	-7.125019	0.000000	0.000000	-43.843174	62.086235	-20.272797	-10.486200	-0.000000	-0.000000	82.264503	7.185128	17.109230	-22.368254	33.390709	-6.787403	0.000000	0.000000	-22.723490	-13.651478	23.283653	-5.483884	7.125019	0.000000	0.000000	9.599632	-6.372515	8.599378
	9.194010	17.865000	15.424700	-175.447998	6.517190	-177.391998	0.000000	0.000000	0.000000	-13.781202	-7.532779	-25.171667	2.186959	9.245111	26.565104	-0.000064	0.353865	-0.474328	0.036119	-1.226708	-3.372818	0.000000	0.000000	0.000000	23.894861	-2.712246	3.734502	-3.998520	-12.158435	36.294773	0.034206	3.718776	-0.512491	-0.000044	0.042664	-0.117222	2.854440	3.415650	1.862050	1.400350	4.667520	0.204727	-0.268438	2.344180	-0.721618	-10.611800	-1.961370	-19.164501	0.903703	-0.379752	23.728399	1.982210	-1.301460	10.897900	-10.611800	-0.000000	0.000000	-88.965744	6.745147	15.605226	15.843976	-25.308640	-3.579003	-0.000000	-0.000003	9.973519	-2.620742	37.681587	-1.602689	-7.125019	0.000000	0.000000	-44.232857	62.015228	-20.418802	-10.611800	-0.000000	0.000000	82.428871	7.393484	16.765812	-22.451834	33.483902	-6.833457	0.000000	0.000000	-23.044798	-13.174047	23.398279	-5.310606	7.125019	0.000000	0.000000	9.900750	-6.316558	8.888329
	9.163600	17.865000	15.272100	-175.235992	6.137590	-177.757004	0.000000	0.000000	0.000000	-13.817215	-7.770121	-24.538973	2.294958	9.455177	27.229816	0.002999	0.143034	-1.097351	0.024273	-1.005788	-2.764736	0.000000	0.000000	0.000000	23.725872	-3.039183	2.645458	-4.528888	-12.832768	38.745644	0.018350	2.659751	2.182792	-0.007150	-0.545990	1.500310	3.237000	3.338330	2.263540	1.361390	4.593540	0.129732	-0.547285	2.301950	-0.992006	-10.497803	-2.028841	-18.852905	0.907661	-0.585924	23.960901	1.934640	-1.405760	10.936201	-10.497801	-0.000000	0.000000	-88.777588	6.869943	15.567500	15.750104	-25.180634	-3.538967	0.000000	0.000003	10.027499	-2.612874	37.732647	-1.599713	-7.125019	0.000000	0.000000	-44.291031	62.054333	-20.492414	-10.497801	-0.000000	0.000000	82.679741	7.144476	16.657850	-22.692934	33.751316	-6.966940	-0.000000	0.000002	-23.376999	-13.252641	23.447815	-5.353869	7.125019	0.000000	0.000000	9.854207	-6.257347	8.856628
	9.139870	17.880501	15.122500	-174.854996	6.030540	-177.936005	0.000000	0.000000	0.000000	-13.625873	-7.494961	-24.138035	2.363509	9.585401	27.644285	0.007541	-0.265795	-1.567222	0.006951	-0.538333	-1.479265	0.000000	0.000000	0.000000	23.830423	-2.930975	1.428821	-5.091969	-13.486622	41.218513	-0.049322	1.528297	5.051946	-0.021270	-0.941550	2.588001	3.719060	3.241160	2.465000	1.441910	4.494820	0.138899	-0.741339	2.252470	-1.068510	-10.724701	-1.947940	-18.880402	1.101990	-0.468039	24.211599	2.060550	-1.367860	11.028300	-10.724700	-0.000000	0.000000	-88.776436	6.749783	15.251911	15.669827	-25.070927	-3.504884	0.000000	0.000000	9.974243	-2.733552	37.999538	-1.683719	-7.125019	0.000000	0.000000	-44.749249	62.216076	-20.922268	-10.724700	-0.000000	0.000000	82.813004	7.389976	16.795368	-22.809626	33.879974	-7.031884	-0.000000	0.000002	-23.632795	-13.258992	23.561169	-5.380798	7.125019	0.000000	0.000000	9.855346	-6.143328	8.879604
	9.121800	17.878300	14.977500	-174.479996	5.955971	-178.186005	0.000000	0.000000	0.000000	-13.513732	-7.052573	-23.604046	2.417232	9.685841	27.965256	0.011367	-0.712489	-1.891962	0.037780	-1.254571	-3.449541	0.000000	0.000000	0.000000	23.979734	-2.773452	0.327740	-5.667873	-14.098581	43.633766	-0.159411	0.368845	7.683840	-0.051422	-1.463384	4.024798	4.223870	3.192090	2.794470	1.437330	4.467131	0.127636	-1.045230	2.234740	-1.227270	-10.785300	-1.853020	-18.761002	1.253930	-0.384219	24.319601	2.139050	-1.326410	11.038700	-10.785300	-0.000000	-0.000000	-88.565491	6.726058	15.074389	15.651003	-25.045164	-3.496911	0.000000	0.000000	9.975264	-3.067781	38.056404	-1.892212	-7.125019	0.000000	0.000000	-45.136227	62.170357	-21.096058	-10.785300	-0.000000	-0.000000	83.081573	7.521432	16.917542	-23.114344	34.213612	-7.202483	-0.000000	0.000002	-24.074799	-13.024640	23.224586	-5.211998	7.125019	0.000000	0.000000	9.986030	-6.508159	8.929868
	9.106640	17.876400	14.838500	-175.108002	5.927949	-178.531006	0.000000	0.000000	0.000000	-14.457793	-7.039854	-22.707996	2.426810	9.703599	28.022125	0.017927	-0.600442	-2.389509	0.105025	-2.089721	-5.753680	0.000000	0.000000	0.000000	23.001429	-2.669437	-0.867668	-6.295984	-14.709167	46.158367	-0.289079	-0.611422	9.957853	-0.065114	-1.646366	4.529314	3.627610	3.258850	3.050230	1.135620	4.528181	0.153297	-1.041840	2.259170	-1.361650	-10.471601	-1.891300	-18.448099	1.082060	-0.541658	24.249903	2.001080	-1.390210	10.960101	-10.471600	0.000000	0.000000	-88.199959	6.662672	15.226274	15.697020	-25.108110	-3.516411	0.000000	0.000003	9.990886	-3.301680	38.045681	-2.036188	-7.125019	0.000000	0.000000	-45.340580	62.102020	-21.140972	-10.471600	0.000000	0.000000	83.334938	7.299414	17.074738	-23.726263	34.873440	-7.549468	0.000000	-0.000002	-24.592688	-12.679863	22.904957	-5.004458	7.125019	0.000000	0.000000	10.187762	-6.868186	9.044127
	9.088770	17.884001	14.699300	-175.951004	5.953990	-178.797012	0.000000	0.000000	0.000000	-15.612272	-7.181596	-21.726299	2.390299	9.635655	27.804745	0.025513	-0.279921	-2.928977	0.103355	-2.073099	-5.707711	0.000000	0.000000	0.000000	21.801271	-2.455741	-2.215418	-6.968714	-15.305490	48.755894	-0.430748	-1.675803	11.929456	-0.043327	-1.343422	3.694253	2.741890	3.356811	3.023960	0.861464	4.607339	0.275778	-0.828815	2.300710	-1.263880	-10.329999	-1.905210	-18.291300	1.046250	-0.625262	24.288202	1.952660	-1.424190	10.947798	-10.330001	-0.000000	0.000000	-87.957390	6.518328	15.668180	15.832478	-25.292969	-3.574089	0.000000	0.000000	9.817026	-3.222384	38.267296	-1.997024	-7.125019	0.000000	0.000000	-45.557266	62.280884	-21.456596	-10.330001	-0.000000	0.000000	83.455536	7.422564	17.068228	-24.103901	35.273941	-7.766478	0.000000	-0.000002	-24.605593	-12.498685	23.008669	-4.951999	7.125019	0.000000	0.000000	10.304200	-6.785860	9.167729
	9.071760	17.894100	14.563200	-176.761993	6.024301	-179.207993	0.000000	0.000000	0.000000	-16.789494	-7.051240	-20.563997	2.318958	9.501037	27.375568	0.030118	-0.009454	-3.273640	0.100125	-2.040520	-5.617655	0.000000	0.000000	0.000000	20.659672	-2.093593	-3.346700	-7.653785	-15.858610	51.305836	-0.573503	-3.113158	13.581794	-0.093748	-1.974662	5.435638	1.882650	3.417160	3.318150	0.675179	4.656361	0.422142	-0.560328	2.327460	-1.328840	-10.570201	-1.875990	-18.470102	1.188850	-0.530861	24.481701	2.058399	-1.396870	11.050600	-10.570199	-0.000000	0.000000	-87.843079	6.419318	16.154766	16.038227	-25.572443	-3.662446	-0.000000	-0.000003	9.415134	-3.008100	38.351242	-1.867524	-7.125019	0.000000	0.000000	-45.468479	62.396721	-21.528261	-10.570199	-0.000000	0.000000	83.421890	7.891669	17.229053	-24.235716	35.412521	-7.842730	0.000000	0.000000	-24.492891	-12.906219	23.246946	-5.167908	7.125019	0.000000	0.000000	10.060430	-6.500046	9.000172
	9.061140	17.905899	14.430700	-177.406998	6.099790	-179.556000	0.000000	0.000000	0.000000	-17.758642	-6.544852	-19.619955	2.246049	9.360806	26.930613	0.035370	-0.101880	-3.515994	0.151243	-2.506014	-6.906321	0.000000	0.000000	0.000000	19.766754	-1.675741	-4.485382	-8.330243	-16.356859	53.743645	-0.691380	-4.673149	14.823195	-0.191738	-2.819970	7.777927	1.169330	3.388090	3.582350	0.562185	4.592840	0.589473	-0.290101	2.299620	-1.352640	-10.896299	-1.837630	-18.901098	1.258670	-0.342984	24.790104	2.165980	-1.351420	11.241301	-10.896301	-0.000000	0.000000	-87.817451	6.156204	16.124947	16.196980	-25.787006	-3.731244	0.000000	0.000000	9.156094	-3.017596	38.241436	-1.868890	-7.125019	0.000000	0.000000	-45.332195	62.315907	-21.363369	-10.896301	-0.000000	0.000000	83.260315	8.384428	17.883453	-24.436016	35.621952	-7.959092	0.000000	0.000000	-24.435396	-14.059303	23.593843	-5.723855	7.125019	0.000000	0.000000	9.361711	-6.010334	8.446217
	9.045400	17.923401	14.290800	-178.026001	6.064960	-179.742004	0.000000	0.000000	0.000000	-18.691097	-6.085647	-18.845324	2.183044	9.237370	26.540703	0.043984	-0.351217	-3.850302	0.214968	-2.984885	-8.236670	0.000000	0.000000	0.000000	18.883547	-1.431190	-5.712286	-8.971222	-16.789164	55.990547	-0.748222	-5.969141	15.418163	-0.184094	-2.763489	7.620965	0.625211	3.367370	3.415640	0.343728	4.537850	0.741842	-0.192445	2.275330	-1.128280	-10.849900	-1.777730	-18.984402	1.193420	-0.261021	25.017200	2.146750	-1.335910	11.337901	-10.849901	0.000000	0.000000	-87.620995	5.852313	16.077688	16.310177	-25.939405	-3.780619	0.000000	0.000000	9.344492	-3.394636	38.183094	-2.100006	-7.125019	0.000000	0.000000	-45.606888	62.176052	-21.373501	-10.849901	0.000000	0.000000	83.275032	8.774759	18.399105	-24.649240	35.843315	-8.083617	-0.000000	0.000002	-24.355490	-15.288561	24.156340	-6.382815	7.125019	0.000000	0.000000	8.634152	-5.282176	7.894772
